<svg xmlns="http://www.w3.org/2000/svg" viewBox="0 0 64 64"><g data-name="Backend website"><path d="M10 15h2a1 1 0 0 0 0-2h-2a1 1 0 0 1-1-1v-2a1 1 0 0 1 1-1h26a1 1 0 0 1 1 1v2a1 1 0 0 1-1 1H21a1 1 0 0 0 0 2h15a3 3 0 0 0 3-3v-2a3 3 0 0 0-3-3H10a3 3 0 0 0-3 3v2a3 3 0 0 0 3 3Z"/><path d="M17 13h-1a1 1 0 0 0 0 2h1a1 1 0 0 0 0-2Z"/><circle cx="49" cy="11" r="2"/><circle cx="43" cy="11" r="2"/><circle cx="55" cy="11" r="2"/><path d="M58 3H6a3 3 0 0 0-3 3v52a3 3 0 0 0 3 3h52a3 3 0 0 0 3-3V6a3 3 0 0 0-3-3ZM6 5h52a1 1 0 0 1 1 1v11H5V6a1 1 0 0 1 1-1Zm52 54H6a1 1 0 0 1-1-1V19h54v39a1 1 0 0 1-1 1Z"/><path d="m47.49 35.74-3.05-.51a13.79 13.79 0 0 0-1-2.36l1.8-2.52a3 3 0 0 0-.24-3.87l-.44-.43a3 3 0 0 0-3.86-.32l-2.52 1.8a13.79 13.79 0 0 0-2.36-1l-.51-3a3 3 0 0 0-3-2.53h-.62a3 3 0 0 0-3 2.51l-.51 3a13.79 13.79 0 0 0-2.36 1l-2.52-1.8a3 3 0 0 0-3.87.32l-.43.43a3 3 0 0 0-.32 3.87l1.8 2.52a13.79 13.79 0 0 0-1 2.36l-3 .51A3 3 0 0 0 14 38.69v.62a3 3 0 0 0 2.51 2.95l3 .51a13.79 13.79 0 0 0 1 2.36l-1.8 2.52a3 3 0 0 0 .32 3.87l.43.43a3 3 0 0 0 2.12.88 3 3 0 0 0 1.75-.56l2.52-1.8a13.79 13.79 0 0 0 2.36 1l.51 3.05a3 3 0 0 0 3 2.51h.62a3 3 0 0 0 2.95-2.51l.51-3.05a13.79 13.79 0 0 0 2.36-1l2.52 1.8a3 3 0 0 0 3.83-.27l.44-.43a3 3 0 0 0 .32-3.87l-1.8-2.52a13.79 13.79 0 0 0 1-2.36l3.05-.51a3 3 0 0 0 2.48-3v-.62a3 3 0 0 0-2.51-2.95Zm.51 3.57a1 1 0 0 1-.84 1l-3.67.61-.2.08a1 1 0 0 0-.16.06 1 1 0 0 0-.19.17s-.07 0-.09.09a.89.89 0 0 0-.15.31 11.22 11.22 0 0 1-1.25 3 .69.69 0 0 0 0 .13 2.09 2.09 0 0 0-.08.23 1.34 1.34 0 0 0 0 .2 1.09 1.09 0 0 0 0 .18 1.12 1.12 0 0 0 .11.25v.1l2.15 3a1 1 0 0 1-.1 1.29l-.44.43a1 1 0 0 1-1.29.11l-3-2.16a.6.6 0 0 0-.11-.06 1 1 0 0 0-.24-.1h-.18a1.34 1.34 0 0 0-.2 0l-.22.08a.58.58 0 0 0-.14 0 11 11 0 0 1-3 1.25 1 1 0 0 0-.36.16l-.11.12a.83.83 0 0 0-.15.17 3 3 0 0 1-.14.36l-.61 3.67a1 1 0 0 1-1 .84h-.62a1 1 0 0 1-1-.84l-.61-3.67v-.07a.79.79 0 0 0-.11-.29 1.07 1.07 0 0 0-.14-.16 1.42 1.42 0 0 0-.12-.13 1.38 1.38 0 0 0-.3-.14 11.09 11.09 0 0 1-3-1.25h-.12L26 48.3a1.48 1.48 0 0 0-.21 0h-.17a1.12 1.12 0 0 0-.25.11s-.07 0-.1 0l-3 2.15a1 1 0 0 1-1.29-.1l-.43-.44a1 1 0 0 1-.11-1.29l2.16-3a.67.67 0 0 0 .06-.12.94.94 0 0 0 .1-.23.61.61 0 0 0 0-.19 1.28 1.28 0 0 0 0-.19 1.25 1.25 0 0 0-.09-.25s0-.07 0-.11a11.15 11.15 0 0 1-1.25-3v-.07a1.2 1.2 0 0 0-.13-.28 1.42 1.42 0 0 0-.13-.12.73.73 0 0 0-.16-.14.85.85 0 0 0-.24-.09s-.07 0-.12-.05l-3.67-.61a1 1 0 0 1-.84-1v-.62a1 1 0 0 1 .84-1l3.67-.61h.07l.09-.05.12-.07a.58.58 0 0 0 .18-.17.46.46 0 0 1 .07-.07 1 1 0 0 0 .15-.33 11.15 11.15 0 0 1 1.25-3s0-.08 0-.11a1.25 1.25 0 0 0 .13-.25 1.28 1.28 0 0 0 0-.19.61.61 0 0 0 0-.19.94.94 0 0 0-.1-.23.67.67 0 0 0-.06-.12l-2.16-3a1 1 0 0 1 .1-1.29l.44-.43a1 1 0 0 1 1.29-.11l3 2.16a1.3 1.3 0 0 0 .32.14H26a.94.94 0 0 0 .32-.11 11.15 11.15 0 0 1 3-1.25.65.65 0 0 0 .22-.11l.11-.06a1.12 1.12 0 0 0 .18-.2l.06-.07a1 1 0 0 0 .13-.35l.61-3.67a1 1 0 0 1 1-.84h.62a1 1 0 0 1 1 .84l.61 3.67a.41.41 0 0 1 0 .08 1.45 1.45 0 0 0 .11.29l.13.14a.86.86 0 0 0 .13.14 1.2 1.2 0 0 0 .28.13h.07a11.15 11.15 0 0 1 3 1.25.89.89 0 0 0 .31.11h.38a1.3 1.3 0 0 0 .32-.14l3-2.16a1 1 0 0 1 1.29.11l.44.43a1 1 0 0 1 .1 1.29l-2.15 3v.1a1.12 1.12 0 0 0-.11.25 1.09 1.09 0 0 0 0 .18 1.34 1.34 0 0 0 0 .2 2.09 2.09 0 0 0 .08.23.69.69 0 0 0 0 .13 11.22 11.22 0 0 1 1.25 3 1 1 0 0 0 .15.33.46.46 0 0 1 .07.07.73.73 0 0 0 .18.17l.12.07.22.08h.07l3.67.61a1 1 0 0 1 .84 1Z"/><path d="M32 31a8 8 0 1 0 8 8 8 8 0 0 0-8-8Zm0 14a6 6 0 1 1 6-6 6 6 0 0 1-6 6Z"/></g></svg>