<svg xmlns="http://www.w3.org/2000/svg" enable-background="new 0 0 66 66" viewBox="0 0 66 66"><path fill="none" stroke="#000" stroke-linecap="round" stroke-linejoin="round" stroke-miterlimit="10" stroke-width="1.5" d="M52.8 19.1c-.5 0-1 .1-1.5.1.1-.6.1-1.1.1-1.7 0-8.7-6.8-15.8-15.1-15.8-6.9 0-12.7 4.8-14.5 11.3-1.6-.8-3.4-1.2-5.2-1.2C9.7 11.9 4.1 17.7 4.1 25c0 7.2 5.6 13.1 12.5 13.1 9.2 0 27 0 36.2 0 5 0 9.1-4.2 9.1-9.5C61.9 23.3 57.8 19.1 52.8 19.1zM7.3 25c0-5.5 4.2-9.9 9.4-9.9M58.7 28.6c0 3.5-2.7 6.3-5.9 6.3M36.4 4.9c4.4 0 8.3 2.6 10.4 6.4"/><line x1="33" x2="33" y1="57.8" y2="38.1" fill="none" stroke="#000" stroke-linecap="round" stroke-linejoin="round" stroke-miterlimit="10" stroke-width="1.5"/><line x1="16" x2="16" y1="44.6" y2="38.1" fill="none" stroke="#000" stroke-linecap="round" stroke-linejoin="round" stroke-miterlimit="10" stroke-width="1.5"/><line x1="50" x2="50" y1="44.6" y2="38.1" fill="none" stroke="#000" stroke-linecap="round" stroke-linejoin="round" stroke-miterlimit="10" stroke-width="1.5"/><polyline fill="none" stroke="#000" stroke-linecap="round" stroke-linejoin="round" stroke-miterlimit="10" stroke-width="1.5" points="42.8 51.9 42.8 48.8 38.7 46.6 38.7 38.1"/><ellipse cx="33" cy="61" fill="none" stroke="#000" stroke-linecap="round" stroke-linejoin="round" stroke-miterlimit="10" stroke-width="1.5" rx="3.3" ry="3.2"/><ellipse cx="16" cy="47.8" fill="none" stroke="#000" stroke-linecap="round" stroke-linejoin="round" stroke-miterlimit="10" stroke-width="1.5" rx="3.3" ry="3.2"/><ellipse cx="50" cy="47.8" fill="none" stroke="#000" stroke-linecap="round" stroke-linejoin="round" stroke-miterlimit="10" stroke-width="1.5" rx="3.3" ry="3.2"/><ellipse cx="42.8" cy="55.2" fill="none" stroke="#000" stroke-linecap="round" stroke-linejoin="round" stroke-miterlimit="10" stroke-width="1.5" rx="3.3" ry="3.2"/><ellipse cx="23.2" cy="55.2" fill="none" stroke="#000" stroke-linecap="round" stroke-linejoin="round" stroke-miterlimit="10" stroke-width="1.5" rx="3.3" ry="3.2"/><polyline fill="none" stroke="#000" stroke-linecap="round" stroke-linejoin="round" stroke-miterlimit="10" stroke-width="1.5" points="23.2 51.9 23.2 48.8 27.3 46.6 27.3 38.1"/><polyline fill="none" stroke="#000" stroke-linecap="round" stroke-linejoin="round" stroke-miterlimit="10" stroke-width="1.5" points="20.2 34.3 20.2 31 23.8 31 23.8 34.3"/><polyline fill="none" stroke="#000" stroke-linecap="round" stroke-linejoin="round" stroke-miterlimit="10" stroke-width="1.5" points="27.5 34.3 27.5 25.9 31.2 25.9 31.2 34.3"/><polyline fill="none" stroke="#000" stroke-linecap="round" stroke-linejoin="round" stroke-miterlimit="10" stroke-width="1.5" points="34.8 34.3 34.8 20.2 38.5 20.2 38.5 34.3"/><polyline fill="none" stroke="#000" stroke-linecap="round" stroke-linejoin="round" stroke-miterlimit="10" stroke-width="1.5" points="42.2 34.3 42.2 15.7 45.8 15.7 45.8 34.3"/><line x1="18.2" x2="47.8" y1="34.3" y2="34.3" fill="none" stroke="#000" stroke-linecap="round" stroke-linejoin="round" stroke-miterlimit="10" stroke-width="1.5"/></svg>