<svg xmlns="http://www.w3.org/2000/svg" viewBox="0 0 512 512"><path d="M472 16H40a24.027 24.027 0 0 0-24 24v336a24.027 24.027 0 0 0 24 24h149.754l-20 80H136v16h240v-16h-33.754l-20-80H472a24.027 24.027 0 0 0 24-24V40a24.027 24.027 0 0 0-24-24ZM40 32h432a8.01 8.01 0 0 1 8 8v8H144v16h336v272H32V40a8.01 8.01 0 0 1 8-8Zm285.754 448H186.246l20-80h99.508ZM472 384H40a8.01 8.01 0 0 1-8-8v-24h448v24a8.01 8.01 0 0 1-8 8Z"/><path d="M48 48h16v16H48zM80 48h16v16H80zM112 48h16v16h-16zM56 256h272a8 8 0 0 0 8-8V88a8 8 0 0 0-8-8H56a8 8 0 0 0-8 8v160a8 8 0 0 0 8 8Zm8-160h256v144H64Z"/><path d="m228.437 161.344-48-32A8 8 0 0 0 168 136v64a8 8 0 0 0 12.438 6.656l48-32a8 8 0 0 0 0-13.312zM184 185.052v-34.104L209.578 168zM360 128h48a8 8 0 0 0 8-8V88a8 8 0 0 0-8-8h-48a8 8 0 0 0-8 8v32a8 8 0 0 0 8 8zm8-32h32v16h-32zM432 96h32v16h-32zM360 192h48a8 8 0 0 0 8-8v-32a8 8 0 0 0-8-8h-48a8 8 0 0 0-8 8v32a8 8 0 0 0 8 8Zm8-32h32v16h-32ZM432 160h32v16h-32zM360 256h48a8 8 0 0 0 8-8v-32a8 8 0 0 0-8-8h-48a8 8 0 0 0-8 8v32a8 8 0 0 0 8 8Zm8-32h32v16h-32ZM432 224h32v16h-32zM360 320h96a8 8 0 0 0 8-8v-32a8 8 0 0 0-8-8h-96a8 8 0 0 0-8 8v32a8 8 0 0 0 8 8Zm8-32h80v16h-80ZM48 272h48v16H48zM48 304h136v16H48zM200 272h48v16h-48zM200 304h136v16H200z"/></svg>